<svg xmlns="http://www.w3.org/2000/svg" width="48" height="48" viewBox="0 0 48 48">
    <g fill="#FFFAFA" fill-rule="nonzero" transform="translate(4 5)">
        <path d="M1.62 7.54a.5.5 0 0 1-1 0V2.17a1.5 1.5 0 0 1 1.5-1.5h13a1.5 1.5 0 0 1 1.5 1.5v13a1.5 1.5 0 0 1-1.5 1.5h-13a1.5 1.5 0 0 1-1.5-1.5v-3.52a.5.5 0 1 1 1 0v3.52a.5.5 0 0 0 .5.5h13a.5.5 0 0 0 .5-.5v-13a.5.5 0 0 0-.5-.5h-13a.5.5 0 0 0-.5.5v5.37z"/>
        <path d="M1.63 10.26a.5.5 0 1 1-1 0V8.94a.5.5 0 0 1 1 0v1.32z"/>
        <rect width="7.93" height="7.93" x="4.66" y="4.7" rx="1"/>
        <path d="M38.38 13.83a.5.5 0 1 1 1 0v1.34a1.5 1.5 0 0 1-1.5 1.5h-13a1.5 1.5 0 0 1-1.5-1.5v-13a1.5 1.5 0 0 1 1.5-1.5h13a1.5 1.5 0 0 1 1.5 1.5v7.54a.5.5 0 1 1-1 0V2.17a.5.5 0 0 0-.5-.5h-13a.5.5 0 0 0-.5.5v13a.5.5 0 0 0 .5.5h13a.5.5 0 0 0 .5-.5v-1.34z"/>
        <path d="M38.38 11.25a.5.5 0 1 1 1 0v1.11a.5.5 0 1 1-1 0v-1.11zM28.41 4.7h5.93a1 1 0 0 1 1 1v5.93a1 1 0 0 1-1 1h-5.93a1 1 0 0 1-1-1V5.7a1 1 0 0 1 1-1zM11.14 22.92a.5.5 0 1 1 0-1h1.28a.5.5 0 1 1 0 1h-1.28z"/>
        <path d="M14 22.92a.5.5 0 1 1 0-1h1.08a1.5 1.5 0 0 1 1.5 1.5v13a1.5 1.5 0 0 1-1.5 1.5h-13a1.5 1.5 0 0 1-1.5-1.5v-13a1.5 1.5 0 0 1 1.5-1.5h7.47a.5.5 0 1 1 0 1H2.08a.5.5 0 0 0-.5.5v13a.5.5 0 0 0 .5.5h13a.5.5 0 0 0 .5-.5v-13a.5.5 0 0 0-.5-.5H14z"/>
        <path d="M5.66 25.95h5.93a1 1 0 0 1 1 1v5.93a1 1 0 0 1-1 1H5.66a1 1 0 0 1-1-1v-5.93a1 1 0 0 1 1-1zM38.38 36a.5.5 0 1 1 1 0v1.75a.5.5 0 1 1-1 0V36zM32 33.48a.5.5 0 1 1 0-1h6.88a.5.5 0 0 1 .5.5v1.31a.5.5 0 1 1-1 0v-.81H32zM30.08 32.48a.5.5 0 1 1 0 1h-2.7a.5.5 0 0 1-.5-.5v-3.06a.5.5 0 1 1 1 0v2.56h2.2zM35.02 22.92a.5.5 0 1 1 0-1h3.86a.5.5 0 0 1 .5.5v7.5a.5.5 0 0 1-.5.5h-8.29a.5.5 0 1 1 0-1h7.79v-6.5h-3.36zM26.91 22.42a.5.5 0 1 1 1 0v2.29a.5.5 0 0 1-.5.5h-3.53a.5.5 0 1 1 0-1h3.03v-1.79zM24.38 37.42a.5.5 0 1 1-1 0v-3.54a.5.5 0 1 1 1 0v3.54z"/>
        <path d="M24.38 31.31a.5.5 0 1 1-1 0v-4a.5.5 0 0 1 .5-.5h7.61a.5.5 0 1 1 0 1h-7.11v3.5z"/>
    </g>
</svg>
