<svg xmlns="http://www.w3.org/2000/svg" width="184" height="250" viewBox="0 0 184 250">
    <g fill="none" fill-rule="evenodd">
        <path fill="#FFF" d="M-88-121h360v640H-88z"/>
        <g fill-rule="nonzero">
            <path fill="#B7E2E0" d="M176.442 158.216h-38.318c-3.567-4.302-8.936-7.052-14.904-7.052h-6.64a19.223 19.223 0 0 0 1.837-4.866h30.302c10.63 0 19.353-8.675 19.353-19.323 0-9.168-6.498-16.89-15.115-18.83a23.546 23.546 0 0 0 1.024-6.91c0-13.4-10.984-24.366-24.404-24.366h-3.143v-2.715c0-4.055-3.32-7.37-7.381-7.37H51.245c-4.062 0-7.382 3.315-7.382 7.37v3.42c0 4.055 3.32 7.37 7.382 7.37h2.295a24.336 24.336 0 0 0-5.862 11.777h-8.653c-10.63 0-19.354 8.674-19.354 19.323 0 10.613 8.688 19.323 19.354 19.323h3.214c-.777 2.045-1.166 4.266-1.201 6.558H7.664c-3.603 0-6.57 2.962-6.57 6.559 0 3.596 2.967 6.558 6.57 6.558h38.424c3.532 3.879 8.618 6.312 14.268 6.312h6.64a19.107 19.107 0 0 0-2.331 9.168h-28.96c-13.42 0-24.404 10.966-24.404 24.365 0 13.4 10.984 24.365 24.404 24.365h57.92c6.321 0 12.078-2.433 16.457-6.417h32.386c4.061 0 7.38-3.315 7.38-7.37v-3.42c0-4.055-3.319-7.37-7.38-7.37h-24.44c0-1.657-.211-3.279-.53-4.865h5.687c8.582 0 15.892-5.642 18.4-13.4h34.822c4.061 0 7.381-3.314 7.381-7.37v-3.42c.035-4.09-3.284-7.404-7.346-7.404z"/>
            <path fill="#000" d="M24.333 137.094c-.141.424-.318 1.129-.6 1.764-1.236 2.574-.883 5.112.565 7.404 1.2 1.94 2.613 3.773 4.097 5.501 4.697 5.395 9.005 11.072 13.031 16.96 2.367 3.42 4.768 6.806 7.17 10.226.635.952.635 1.728.035 2.433-.883 1.023-2.19 1.552-3.002 1.093a2.935 2.935 0 0 1-1.024-.952c-4.061-5.783-8.158-11.495-12.078-17.348-2.084-3.068-3.85-6.312-5.757-9.485-1.448-2.433-2.684-4.937-4.591-7.088-1.236-1.41-2.684-2.468-4.52-2.856-.848-.176-1.766-.14-2.65-.106-2.154.141-3.743-.67-4.98-2.503-2.612-3.879-5.367-7.687-8.051-11.53a17.132 17.132 0 0 1-1.413-2.469c-.565-1.199-.318-2.01.742-2.785 3.037-2.151 6.074-4.302 9.111-6.383 1.166-.81 2.049-.74 3.002.282 1.025 1.129 1.907 2.363 2.79 3.597 2.543 3.561 5.05 7.158 7.558 10.755.636 1.022.812 2.08.565 3.49zm-5.65 1.728c.494.106.953-.176.882-.529-.035-.246-.176-.493-.317-.67a1491.452 1491.452 0 0 0-6.534-9.308c-1.2-1.728-2.402-3.42-3.638-5.149-.247-.352-.565-.564-.988-.317-.46.282-.318.67-.071.987.318.459.6.882.918 1.34 3.108 4.408 6.18 8.816 9.288 13.258.177.177.389.283.46.388zm-1.59 1.164c-.07-.176-.176-.458-.353-.705-3.284-4.725-6.604-9.415-9.889-14.105-.282-.388-.53-1.022-1.13-.6-.635.424-.176.918.106 1.34 3.143 4.514 6.322 9.028 9.465 13.541.247.353.495.74.777 1.023.353.317.883.14 1.024-.494zM3.002 126.164c-.177.246-.389.423-.424.634-.035.247 0 .6.141.811 1.236 1.834 2.543 3.632 3.78 5.43 1.765 2.54 3.566 5.078 5.332 7.617.141.211.46.458.706.458.565 0 .742-.529.354-1.058-.954-1.375-1.943-2.785-2.896-4.16-2.049-2.962-4.132-5.889-6.18-8.816-.177-.246-.39-.458-.813-.916zm8.547-5.572c-.212.106-.495.141-.6.282-.107.177-.142.459-.107.635.07.212.247.388.389.6l5.933 8.462c1.024 1.446 2.013 2.892 3.037 4.302.353.529.918.564 1.13.106.106-.212 0-.635-.176-.846-3.002-4.338-6.075-8.675-9.112-12.976-.141-.212-.318-.353-.494-.565zM117.781 53.667l-2.119-3.561-2.083-3.597c-.672-1.234-1.378-2.433-2.014-3.773 1.201.847 2.225 1.834 3.179 2.927.954 1.093 1.766 2.257 2.507 3.49a22.897 22.897 0 0 1 1.837 3.88c.494 1.34.883 2.75.989 4.195-.848-1.163-1.554-2.362-2.296-3.56zM116.263 210.543c-.318-1.305-.671-2.68-.99-4.055l1.484-.317c.318 1.304.742 2.644 1.095 3.984l-1.59.388z"/>
            <path fill="#FFF" d="M116.086 196.262c.035.565-.141 1.164-.353 1.799-.212.634-.495 1.304-.636 2.045-.141.705-.247 1.445-.247 2.186-.035 1.446.212 2.856.494 4.231.283 1.375.671 2.715.99 4.055v.036c1.2 5.289 1.412 10.79 1.624 16.29.106 2.786.247 5.571.635 8.357.318 2.362.777 4.69 1.52 6.982a91.79 91.79 0 0 0-3.32.705c-1.555.352-3.073.74-4.557 1.058-1.518.282-3.037.493-4.59.493-1.555 0-3.073-.211-4.557-.705l-.106.212-1.66-.776a16.867 16.867 0 0 0 2.614-2.398c1.554-1.798 2.649-3.879 3.567-5.994.46-1.058.848-2.186 1.06-3.385.247-1.2.247-2.433.176-3.597-.07-1.163-.247-2.292-.424-3.385l-.459-3.314c-.282-2.187-1.836-16.538-.176-32.511 1.977-1.481 3.072-2.398 4.944-4.055 1.836-1.657 2.825-2.504 4.485-4.372 0 0 .247 2.433-1.518 10.049-.177.67-.283 1.34-.424 2.045-.07.353-.106.74-.07 1.164.034.423.211.846.388 1.163.176.318.388.6.494.882.035.176.07.423.106.74z"/>
            <path fill="#000" d="M113.896 52.962c.671 1.305 1.166 2.75 1.201 4.231-.53-1.375-1.06-2.68-1.73-3.949-.671-1.27-1.448-2.433-2.331-3.632 1.2.882 2.154 2.045 2.86 3.35z"/>
            <path fill="#000" d="M123.68 56.876c.635-.846 1.023-1.869 1.235-2.927.318-1.41.247-2.856-.035-4.302-.565-2.891-1.978-5.747-3.108-8.603-1.236-2.821-2.684-5.536-4.98-7.476-1.13-.952-2.507-1.763-3.779-2.75-1.271-.952-2.472-2.186-2.86-3.738.67 1.446 1.942 2.398 3.249 3.174 1.307.776 2.755 1.446 4.097 2.398 1.342.952 2.472 2.186 3.39 3.49.954 1.305 1.695 2.75 2.402 4.161.706 1.446 1.306 2.856 1.907 4.337.6 1.481 1.165 2.998 1.483 4.62.318 1.622.353 3.35-.035 5.007-.353 1.657-1.201 3.279-2.508 4.478l-.565.529a.77.77 0 0 1-.106.176 3.168 3.168 0 0 1-1.165 1.199c.035.106.035.247.035.352a2.202 2.202 0 0 1-.353.988 2.268 2.268 0 0 1-1.625.987c-.6.035-1.2-.141-1.66-.423a2.507 2.507 0 0 1-.494-.353c-.07 1.904-.6 3.773-1.625 5.325.848-2.01 1.095-4.161.742-6.206l-.177-1.058.883.67c.707.529 1.519.987 2.225.881.248-.035.53-.246.671-.529.071-.14.106-.246.106-.352 0-.106-.035-.141-.07-.212l-.707-.705.99-.353c.388-.14.74-.493.953-.916.212-.423.247-.882.106-1.234l-1.695-5.395 3.072 4.76z"/>
            <path fill="#FFF" d="M115.309 166.502c-.636-.564-1.342-1.058-2.013-1.516-.353-.247-.706-.458-1.06-.67-.353-.176-.67-.388-1.059-.458 1.024-.071 2.084-.036 2.931.493.848.53 1.484 1.446 1.978 2.292.247.459.46.952.742 1.446.07.106.14.211.247.352l-.035.036c-.53-.74-1.06-1.375-1.731-1.975z"/>
            <path fill="#F9D9A9" d="M121.878 156.17c.247.142.459.212.6.353l.177.177c-.035 0-.035 0-.035.035-.142.035-.424.106-.671.14-.248.036-.495.036-.742.036a5.14 5.14 0 0 1-1.448-.211 5.055 5.055 0 0 1-1.342-.6 4.136 4.136 0 0 0-.883-.388 2.303 2.303 0 0 0-1.095-.035c-.706.176-1.165.529-1.624.811l-1.378.882-2.72 1.763-1.447.916 1.695.106 3.143.212c.495.07.777.176 1.06.493.282.318.565.811.847 1.234l3.426 5.36c.247.423.283.74.035.952-.247.212-.777.282-1.165.177-.212-.071-.389-.142-.565-.318-.177-.14-.318-.352-.46-.529-.282-.423-.494-.881-.776-1.375a6.196 6.196 0 0 0-1.024-1.305 6.203 6.203 0 0 0-1.307-1.022 3.64 3.64 0 0 0-1.59-.388 6.83 6.83 0 0 0-1.483.176h-.035c-.035 0-.035 0-.07-.035V163.858c.388.07.741.352 1.059.599.353.247.67.494 1.024.74.671.53 1.307 1.023 1.907 1.587.283.282.53.6.812.917.248.317.53.635.742.987.212.353.424.706.495 1.058.105.353.105.74-.071 1.023-.177.317-.46.493-.742.458-.318-.035-.635-.247-.989-.494-.67-.493-1.306-1.022-1.942-1.551-.636-.529-1.271-1.093-1.907-1.622-.318-.247-.671-.529-.989-.776-.318-.247-.706-.529-1.2-.564h-.283l.212.212c1.06.987 2.083 2.01 3.037 3.103.494.528.953 1.093 1.413 1.657.459.564.918 1.128.988 1.763.036.317-.07.635-.247.846-.176.212-.494.282-.812.282-.636-.035-1.166-.493-1.73-.952l-1.731-1.34c-.565-.423-1.166-.952-1.943-1.199-.741-.246-1.554-.246-2.295-.14-.742.105-1.483.281-2.154.493-1.413.423-2.755.917-4.133 1.305-.706.176-1.412.352-2.119.458-.706.106-1.448.212-2.119.106-1.942-.282-2.507-1.728-2.578-1.904v-.036l-.176-.775c1.554-1.481 3.108-2.997 4.662-4.514l4.626-4.548 2.296-2.292c.777-.74 1.554-1.446 2.436-1.975.883-.529 1.872-.881 2.896-1.234l3.073-1.023 1.554-.529c.53-.176 1.024-.352 1.483-.458.46-.106.883-.07 1.307.07.46.142.918.353 1.377.6l2.896 1.446.742.529z"/>
            <path fill="#FFF" d="M106.656 227.927c.071 1.057.036 2.08-.14 3.103-.177.987-.53 2.01-.954 2.997-.848 2.01-1.837 3.914-3.144 5.536-1.306 1.622-3.072 2.856-4.98 3.914-.953.529-1.942 1.022-2.93 1.551-.99.494-1.978 1.023-2.967 1.446-2.013.917-4.026 1.587-6.18 1.798-2.155.247-4.38.106-6.605.07-1.13-.035-2.26-.035-3.39.071-1.13.07-2.26.247-3.355.423-1.095.177-2.19.318-3.285.388-1.095.07-2.19-.035-3.249-.247-.53-.105-1.06-.246-1.59-.352a314.197 314.197 0 0 1-11.018-2.75c.883-4.161 1.59-8.357 2.084-12.589.494-4.372.67-8.78.67-13.187 0-4.408-1.13-22.391-2.048-25.988.212-.035.46-.07.671-.105.954-.141 1.908-.212 2.896-.318-.07.67-.106 1.34-.176 2.01l-.106 1.27h1.271c4.662 0 9.324 1.375 14.092 2.503 2.401.564 4.838 1.058 7.38 1.27 2.544.211 5.157.07 7.665-.67 1.271-.353 2.436-.882 3.567-1.376.565-.246 1.13-.493 1.695-.775.565-.282 1.095-.565 1.66-.847 2.19-1.128 4.344-2.397 6.427-3.702 1.943-1.199 2.437-1.481 4.274-2.82-.495 1.621-.036 19.64.317 24.118.177 2.221.389 4.478.671 6.7l.424 3.349c.142 1.093.283 2.15.353 3.209zm-8.935-19.253c.671-.529.777-1.48.248-2.115-.53-.67-1.484-.776-2.12-.247-.67.529-.776 1.48-.247 2.115.495.635 1.448.74 2.12.247zm0 16.255c.671-.528.777-1.48.248-2.115-.53-.67-1.484-.776-2.12-.247-.67.529-.776 1.481-.247 2.116a1.51 1.51 0 0 0 2.12.246z"/>
            <path fill="#000" d="M117.887 226.869c-.247-5.536-.424-11.002-1.624-16.29v-.036l1.589-.353c1.448 5.466 1.801 11.072 2.295 16.538.248 2.75.53 5.465.919 8.145.388 2.68.883 5.324 1.624 7.899l.424 1.41-1.413.106c-1.518.106-3.037.352-4.59.6-1.555.246-3.144.493-4.769.634-1.624.14-3.249.14-4.873-.07-1.625-.212-3.214-.706-4.591-1.517l.105-.211c1.484.493 3.038.705 4.556.705 1.554 0 3.073-.212 4.592-.494 1.518-.282 3.037-.67 4.555-1.058 1.095-.247 2.19-.529 3.32-.705a43.198 43.198 0 0 1-1.518-6.982c-.318-2.75-.46-5.536-.6-8.321zM102.878 129.126a23.122 23.122 0 0 1 2.648-2.61l.036.035a35.332 35.332 0 0 0-2.296 2.857c-.353.493-.636 1.022-1.024 1.516-.389.493-.742.952-1.2 1.41l-.072-.035c.177-.635.424-1.164.742-1.728.353-.529.777-.987 1.166-1.445z"/>
            <path fill="#FFF" d="M105.562 126.587l-.036-.036a20.546 20.546 0 0 0-2.648 2.61c-.389.458-.848.917-1.166 1.48-.318.53-.6 1.094-.742 1.729l.071.035c.46-.459.848-.917 1.2-1.41.39-.459.672-1.023 1.025-1.517a30.57 30.57 0 0 1 2.296-2.891zm-1.519-8.251c.636.6.918 1.48 1.095 2.327.353 1.728.318 3.49.318 5.254v.211l.212.036 9.853 1.163c1.624.212 3.284.353 4.556 1.129.6.387 1.06.952 1.306 1.622.248.634.212 1.34-.105 1.833l-1.06 1.552 1.766-.6c.247-.07.636.106.883.459.247.317.353.846.388 1.41.036.564.106 1.27.247 1.869.106.635.283 1.234.46 1.833.741 2.398 1.836 4.584 2.33 6.876a30.079 30.079 0 0 1 .177 14.07c-1.024 4.619-3.178 8.956-5.862 12.87-2.72 3.914-6.04 7.404-9.642 10.578a91.906 91.906 0 0 1-11.62 8.533 84.662 84.662 0 0 1-6.285 3.561c-.53.283-1.06.53-1.625.811-.53.247-1.06.494-1.625.74a26.46 26.46 0 0 1-3.249 1.235c-2.19.635-4.485.74-6.816.6-2.33-.177-4.662-.635-7.028-1.2-4.309-.987-8.723-2.256-13.385-2.468.283-3.42.636-6.84 1.413-10.12.883-3.667 2.33-7.193 4.803-9.908.6-.635 1.377-1.446 1.766-1.551.212-.07.53-.07.953.035l1.413.282 5.721 1.199 11.443 2.398.883.176.14-.882c.107-.705.39-1.41.778-2.01a75.49 75.49 0 0 1 3.002 7.405l1.271-.352c-.494-1.87-.847-3.808-.953-5.748l2.86 4.161.848 1.234-.106-1.48c-.07-.847-.106-1.729-.141-2.575a55.218 55.218 0 0 1 0-3.42l-.212-.035.07-.212c.777.141 1.484.07 2.225 0 .742-.07 1.448-.212 2.155-.388 1.448-.317 2.86-.247 4.238-.67 1.342-.423 2.754-.67 4.061-.282a4.94 4.94 0 0 1 1.73.846l1.802 1.305c.565.388 1.2.705 2.048.74.424 0 .848-.282 1.13-.634.283-.353.389-.776.318-1.2-.106-.845-.67-1.41-1.13-1.938a59.815 59.815 0 0 1-1.448-1.622c-.883-.988-1.836-1.905-2.755-2.857.248.106.46.282.671.459.318.247.636.529.954.81.636.565 1.2 1.164 1.836 1.729.6.599 1.236 1.163 1.943 1.657.318.247.67.564 1.236.635.565.07 1.06-.318 1.271-.741.248-.458.212-.987.106-1.41a4.24 4.24 0 0 0-.6-1.2l.035-.035c.106.106.212.247.318.353.212.212.53.388.812.494.6.176 1.272.176 1.872-.282.283-.212.495-.635.495-.988 0-.388-.142-.705-.283-.952l-3.284-5.5c-.283-.459-.495-.917-.919-1.41a2.322 2.322 0 0 0-.812-.6 3.25 3.25 0 0 0-.918-.247c-.53-.035-1.024-.106-1.519-.141l1.307-.811 1.377-.882c.46-.317.883-.564 1.236-.634a.796.796 0 0 1 .495.035c.176.035.388.14.6.282.46.247 1.024.564 1.59.705a5.966 5.966 0 0 0 1.765.282c.318 0 .6 0 .883-.035.318-.035.565-.07.918-.212.177-.07.389-.176.6-.387.177-.212.319-.494.283-.811-.07-.6-.424-.882-.67-1.094-.283-.211-.601-.352-.813-.458l-.742-.353-2.896-1.445c-.494-.247-.988-.494-1.589-.67-.565-.176-1.307-.212-1.872-.07-.6.14-1.094.352-1.624.493l-1.519.529-3.072 1.093c-1.025.388-2.049.776-3.038 1.375-.035 0-.035.035-.07.035-.106-3.314-.353-6.629-.742-9.908-.388-3.42-.953-6.84-1.624-10.226l-.106-.529-.566.071c-2.79.282-5.58.494-8.405.6-2.649.105-5.297.176-7.946.105v-.211c-.777-2.151-.318-4.62 1.06-6.206.706-.811 1.624-1.446 2.577-2.045a23.519 23.519 0 0 1 6.075-2.75c1.095-.318 2.225-.635 3.32-1.094 1.095-.458 2.19-1.163 2.931-2.115.388-.494.706-1.023.883-1.587.177-.6.247-1.234.141-1.834v-.07l-.035-.036a.976.976 0 0 0-.46-.387.656.656 0 0 0-.246-.071c.459 0 .882.212 1.165.494z"/>
            <path fill="#6D6E71" d="M101.712 120.874c-.035-.987-.07-1.939-.07-2.926.353-.035.67-.07.988 0 .318.035.565.211.671.423 0 1.093-.53 2.08-1.271 2.82l-.424-.352.106.035z"/>
            <path fill="#000" d="M116.05 160.155c.424.494.636.952.919 1.41l3.284 5.501c.142.247.283.564.283.952s-.212.776-.495.988c-.6.458-1.27.458-1.871.282a2.097 2.097 0 0 1-.813-.494c-.106-.106-.212-.211-.317-.353-.071-.105-.177-.211-.248-.352-.318-.494-.494-.987-.741-1.446-.495-.881-1.13-1.763-1.978-2.292-.848-.564-1.907-.564-2.931-.493.494-.071.989-.177 1.483-.177.53 0 1.095.141 1.59.388.494.247.917.6 1.306 1.023.388.423.742.81 1.024 1.304.283.459.495.952.777 1.376.141.211.283.387.46.528.176.177.352.247.564.318.389.106.918.035 1.166-.177.247-.211.212-.528-.036-.952l-3.425-5.36c-.283-.458-.565-.916-.848-1.233-.282-.318-.6-.424-1.06-.494L111 160.19l-1.695-.105 1.448-.917 2.72-1.763 1.377-.882c.459-.282.918-.634 1.624-.81.354-.071.777-.071 1.095.035.353.105.636.246.883.387.495.282.883.459 1.342.6.46.14.954.211 1.448.211.247 0 .495 0 .742-.035.212-.035.494-.07.67-.14.036 0 .036 0 .036-.036l-.176-.176a3.848 3.848 0 0 0-.6-.353l-.742-.353-2.896-1.445c-.495-.247-.954-.459-1.378-.6-.459-.14-.847-.176-1.306-.07-.46.07-.954.282-1.484.458l-1.554.529-3.072 1.023c-1.024.352-2.013.705-2.896 1.234-.883.493-1.66 1.199-2.437 1.974l-2.296 2.292-4.626 4.549a553.991 553.991 0 0 1-4.662 4.513 281.98 281.98 0 0 1 4.38-4.795l4.414-4.76 2.225-2.363c.742-.74 1.518-1.516 2.437-2.116v-.035h.035c.035 0 .035-.035.07-.035.99-.6 2.014-1.023 3.038-1.375l3.072-1.093 1.52-.53c.494-.176 1.023-.387 1.624-.493a3.732 3.732 0 0 1 1.871.07c.6.177 1.095.424 1.59.67l2.896 1.446.741.353c.212.106.53.247.813.458.247.212.6.494.67 1.093.036.318-.07.6-.282.811-.177.212-.424.318-.6.388-.353.106-.6.141-.919.212-.282.035-.6.07-.882.035-.6 0-1.201-.106-1.766-.282a8.283 8.283 0 0 1-1.59-.705 8.66 8.66 0 0 0-.6-.282.796.796 0 0 0-.494-.036c-.354.07-.777.353-1.236.635l-1.378.882-1.307.81c.495.036.99.106 1.52.142.282.035.6.105.917.246.212 0 .495.247.707.494zM101.006 143.547c.53.67.388 1.622-.247 2.116a1.51 1.51 0 0 1-2.12-.247c-.494-.635-.388-1.622.248-2.116.67-.493 1.624-.387 2.119.247zM101.006 157.264c.53.67.388 1.622-.247 2.115-.636.494-1.625.388-2.12-.246a1.505 1.505 0 0 1 .248-2.116c.67-.529 1.624-.423 2.119.247z"/>
            <path fill="#603913" d="M105.774 75.705c-.283.776-3.25.67-3.426-.211a13.05 13.05 0 0 1-.177-5.36c.283-1.763.812-3.526 1.307-5.29l.282-1.022-.988.353c-.954.353-1.872.776-2.755 1.305-.283.176-.565.387-.848.599.53-1.481.99-3.032 1.095-4.654a8.548 8.548 0 0 0-.459-3.386c-.212-.564-.742-1.41-1.236-2.115-.424-.6-.777-1.093-.777-1.093-.212 1.34-.636 2.715-1.2 3.737-.319.6-.707 1.164-1.131 1.693-.07-.67-.247-1.34-.46-1.975-.352-1.093-.882-2.08-1.235-3.103-1.837-5.465 1.271-12.024 1.413-12.341l.812-1.375c2.366 1.587 11.372 9.415 11.796 15.938.035.458-.813 1.728-.813 1.728 10.066 9.167 10.454 25.14 10.207 25.352-.036.035-7.629 4.655-11.831 12.377l3.673-9.38s-1.978 1.552-4.344 2.08c1.977-1.692 3.885-3.49 5.58-5.535.989-1.234 1.907-2.539 2.578-4.02.318-.74.565-1.551.67-2.398.107-.846 0-1.727-.246-2.538-.248-.811-.671-1.622-1.378-2.257-.67-.635-1.695-.987-2.648-.846-.99.14-1.766.775-2.296 1.445-.53.74-.883 1.516-1.165 2.292z"/>
            <path fill="#000" d="M97.969 206.523c.53.67.388 1.622-.248 2.116a1.51 1.51 0 0 1-2.119-.247 1.505 1.505 0 0 1 .248-2.116c.67-.493 1.624-.387 2.119.247zM97.969 222.814c.53.67.388 1.622-.248 2.115a1.51 1.51 0 0 1-2.119-.246 1.505 1.505 0 0 1 .248-2.116c.67-.529 1.624-.423 2.119.247zM117.499 171.05c-.212.424-.707.847-1.272.741-.53-.07-.918-.388-1.236-.634a17.227 17.227 0 0 1-1.942-1.658c-.6-.564-1.201-1.163-1.837-1.727-.318-.283-.635-.565-.953-.811-.212-.177-.424-.353-.671-.459a52.612 52.612 0 0 1 2.754 2.856c.495.53.99 1.058 1.448 1.622.46.53 1.025 1.129 1.13 1.94.036.387-.035.846-.317 1.198-.318.353-.742.635-1.13.635-.883-.035-1.484-.352-2.049-.74l-1.801-1.305c-.6-.423-1.095-.67-1.73-.846-1.272-.388-2.685-.106-4.062.282-1.377.423-2.825.317-4.238.67a15.36 15.36 0 0 1-2.154.388c-.742.07-1.484.176-2.225 0-1.483-.318-2.472-1.693-2.508-2.292.071.176.636 1.657 2.578 1.904.671.106 1.413-.035 2.12-.106.706-.106 1.412-.282 2.118-.458 1.378-.388 2.755-.847 4.133-1.305.706-.212 1.412-.423 2.154-.494.741-.105 1.554-.105 2.295.141.777.247 1.378.776 1.943 1.2l1.73 1.34c.565.458 1.13.916 1.73.951.319.035.637-.07.813-.282.212-.211.283-.529.247-.846-.035-.635-.53-1.234-.988-1.763-.46-.564-.919-1.129-1.413-1.657a42.005 42.005 0 0 0-3.037-3.103l-.212-.212h.282c.495 0 .848.317 1.201.564.353.247.671.494.989.776.67.529 1.271 1.093 1.907 1.622.636.529 1.271 1.058 1.942 1.551.354.247.671.494.99.494.282.035.6-.176.74-.458.177-.282.177-.67.072-1.023a4.75 4.75 0 0 0-.495-1.058 6.56 6.56 0 0 0-.742-.987c-.282-.317-.53-.635-.812-.917-.6-.564-1.271-1.093-1.907-1.587a25.727 25.727 0 0 0-1.024-.74c-.353-.212-.671-.494-1.06-.6v-.07c.036 0 .071.035.071.035h.035c.389.07.742.282 1.06.459.353.211.706.458 1.06.67.706.493 1.377.987 2.012 1.516.636.6 1.201 1.199 1.696 1.94.247.352.459.74.6 1.198.212.458.212.987-.035 1.446zM90.693 72.496c.954 0 1.766 1.129 1.766 2.54 0 1.41-.777 2.538-1.766 2.538-.953 0-1.766-1.128-1.766-2.539.036-1.41.813-2.539 1.766-2.539z"/>
            <path fill="#FFF" d="M119.088 53.032a25.97 25.97 0 0 0-1.837-3.878c-.741-1.234-1.553-2.398-2.507-3.491-.954-1.093-1.978-2.116-3.179-2.927.6 1.34 1.307 2.539 2.014 3.773l2.083 3.597 2.12 3.561c.74 1.199 1.447 2.398 2.295 3.561-.106-1.445-.495-2.82-.99-4.196zm1.483-.846l1.695 5.395c.106.353.071.846-.106 1.234-.211.423-.53.74-.953.917l-.989.353.706.705c.071.07.071.106.071.211 0 .106-.035.212-.106.353-.141.282-.424.494-.671.529-.671.106-1.483-.317-2.225-.882l-.883-.67.177 1.058c.353 2.045.07 4.196-.742 6.206 1.024-1.551 1.554-3.42 1.625-5.324.176.106.318.247.494.352.46.247 1.024.459 1.66.424.671-.036 1.271-.459 1.625-.988.176-.282.317-.6.353-.987 0-.106 0-.212-.036-.353a3.168 3.168 0 0 0 1.166-1.199c.035-.07.07-.105.106-.176l.565-.529c1.307-1.199 2.154-2.82 2.507-4.478.389-1.657.318-3.385.036-5.007-.283-1.622-.883-3.138-1.484-4.62a94.908 94.908 0 0 0-1.907-4.336c-.706-1.41-1.448-2.856-2.401-4.161-.954-1.305-2.049-2.539-3.39-3.49-1.343-.953-2.79-1.623-4.097-2.399-1.307-.775-2.579-1.727-3.25-3.173.389 1.551 1.625 2.786 2.861 3.738 1.272.987 2.614 1.763 3.779 2.75 2.296 1.94 3.744 4.654 4.98 7.475 1.165 2.856 2.542 5.713 3.108 8.604.282 1.446.353 2.891.035 4.302-.212 1.058-.636 2.08-1.236 2.926l-3.073-4.76zm-11.584 6.63c.424 0-1.73-11.531-12.784-18.09-2.084-1.234-4.274-2.15-6.499-2.997-2.225-.846-4.52-1.587-6.851-2.115-1.13-.247-2.19-.53-3.108-.953 0 0 18.612-15.48 20.06-17.242a159.476 159.476 0 0 0-5.686 3.808c-.424.282-1.377 1.023-2.613 2.01l-.6-.776.105-.035c-.742-2.327-.53-4.83.247-7.123.777-2.292 2.013-4.372 3.567-6.24.777-.918 1.625-1.8 2.543-2.504.918-.706 1.978-1.235 3.108-1.41 1.095-.177 2.225.105 3.179.67.918.563 1.589 1.55 1.589 2.573l.035 3.773 1.024-3.632c4.768-13.223 16.14-5.007 14.869 1.446-.036.176-.106.74-.106.74l.494-.564c.918-1.022 2.331-1.48 3.708-1.551a6.87 6.87 0 0 1 2.084.211c.706.141 1.342.388 1.978.705 2.543 1.2 4.59 3.42 5.721 5.995 1.13 2.574 1.483 5.465 1.271 8.286a26.868 26.868 0 0 1-.635 4.16c-.318 1.34-.848 2.68-1.837 3.421l.636.846c.53-.387 1.307-.317 1.942.071.636.353 1.13.987 1.201 1.657.106.74-.106 1.481-.53 2.116-.423.67-1.024 1.199-1.695 1.587l-1.13.634 1.2.459c9.536 3.632 4.945 19.464-5.509 17.56l-.988-.036.459.882c3.743 8.533-2.331 14.422-6.605 13.963-.776-.07-1.589-.493-1.836-1.27l-.318-1.092-.106 1.128c-.212 1.975-2.26 3.068-3.92 3.068l.07.282-.564.141c-1.307-4.937-3.461-10.367-7.17-14.563zm6.11-1.623c-.035-1.48-.494-2.926-1.2-4.231-.707-1.305-1.66-2.468-2.861-3.35.847 1.199 1.66 2.363 2.33 3.632.672 1.27 1.201 2.574 1.731 3.95z"/>
            <path fill="#000" d="M139.96 40.092c4.238 3.737 3.779 17.665-6.498 17.383-.883-.035-1.766.07-2.649 0 2.013 5.818.671 14.175-8.052 14.175-.495 0-.954-.211-1.342-.529-.212-.14-.389-.352-.53-.564-.53 1.834-2.013 3.35-3.814 3.879l-.318-1.27-.07-.282c1.66 0 3.708-1.093 3.92-3.067l.105-1.129.318 1.093c.212.74 1.025 1.164 1.837 1.27 4.273.458 10.348-5.43 6.604-13.964l-.46-.881.99.035c10.454 1.904 15.01-13.928 5.51-17.56l-1.202-.458 1.13-.635a5.213 5.213 0 0 0 1.696-1.587c.424-.634.635-1.41.53-2.115-.071-.67-.566-1.305-1.201-1.658-.636-.387-1.413-.458-1.943-.07l-.635-.846c1.024-.74 1.518-2.08 1.836-3.42a28.23 28.23 0 0 0 .636-4.161c.176-2.821-.141-5.677-1.272-8.287-1.13-2.574-3.143-4.795-5.72-5.994a13.201 13.201 0 0 0-1.979-.705 6.87 6.87 0 0 0-2.083-.212c-1.378.07-2.826.53-3.709 1.552l-.494.564s.07-.564.106-.74c1.271-6.453-10.1-14.704-14.868-1.446l-1.095 3.702-.036-3.773c0-1.022-.67-1.975-1.589-2.574a4.57 4.57 0 0 0-3.178-.67c-1.13.176-2.155.705-3.108 1.41a15.483 15.483 0 0 0-2.543 2.504c-1.554 1.834-2.79 3.95-3.567 6.241-.777 2.257-.989 4.796-.247 7.123l-.106.035c-.918-2.292-.848-4.936-.141-7.334.67-2.398 1.907-4.62 3.425-6.594.777-.987 1.59-1.904 2.614-2.715.989-.776 2.19-1.41 3.496-1.622 1.342-.247 2.72.07 3.885.776.565.352 1.095.81 1.483 1.41.07.106.106.212.177.318.847-1.763 2.154-3.773 3.743-4.831 1.025-.705 10.066-5.395 12.079 6.276l.212 1.129c.777-.53 2.295-1.41 3.531-1.552 8.088-.917 10.56 4.655 11.69 7.37 2.967 7.193-.812 14.527-1.13 15.197-.07.212-.177.388-.318.564.46.036.918.177 1.307.423.883.494 1.624 1.376 1.801 2.469.177 1.022-.141 2.08-.671 2.926-.318.53-.742.988-1.2 1.41.811.46 2.436 1.411 3.107 2.01zM90.481 64.28c-.635-.105-1.271-.21-1.871-.352a36.15 36.15 0 0 1-1.872-.458c-.636-.177-1.272-.353-1.907-.635.67-.247 1.342-.317 2.013-.317a9.315 9.315 0 0 1 3.92.846c.6.282 1.2.635 1.695 1.128-.706 0-1.342-.106-1.978-.211zM102.63 121.756c-.777.952-1.836 1.657-2.931 2.116-1.13.458-2.26.775-3.32 1.093a23.911 23.911 0 0 0-3.143 1.163 21.258 21.258 0 0 0-2.931 1.587c-.954.6-1.872 1.27-2.578 2.045-1.413 1.587-1.872 4.055-1.06 6.206-1.236-1.974-1.13-4.795.353-6.805.742-.988 1.696-1.728 2.65-2.398.953-.67 2.012-1.27 3.072-1.763 1.06-.494 2.19-.882 3.32-1.199 1.13-.317 2.224-.529 3.249-.917.494-.176 1.024-.388 1.483-.67.459-.282.883-.599 1.271-.987.742-.74 1.272-1.728 1.272-2.82a.873.873 0 0 0-.671-.424c-.318-.07-.636-.035-.99 0 .39-.141.848-.247 1.272-.211v.07c.07.035.177.035.247.07.177.071.354.212.46.388l.035.036v.07c.106.6.035 1.234-.141 1.834-.248.493-.566 1.058-.919 1.516z"/>
            <path fill="#6D6E71" d="M79.25 135.014a10.622 10.622 0 0 0-6.215-6.347l-1.236-.458a54.71 54.71 0 0 0 6.074-1.87c.565 2.857 1.06 5.748 1.378 8.675z"/>
            <path fill="#000" d="M91.47 50.635c-.565.775-5.085 7.158-6.64 8.462l-1.2 1.058-2.331-6.735.106 9.098s-6.392-10.297-6.957-14.563l.847-.141c.495 1.94 1.66 4.866 4.485 7.792l.177-3.244.283-4.971 2.224 4.478 1.378 2.856.636 1.375a44.887 44.887 0 0 0 2.93-2.856c1.308-1.41 2.508-2.927 3.638-4.478l4.168-5.889c-.141.318-3.285 6.876-1.413 12.342.353 1.022.883 2.01 1.236 3.103.212.634.353 1.304.46 1.974.388-.529.776-1.093 1.13-1.692.565-1.023 1.024-2.398 1.2-3.738 0 0 .353.458.777 1.093l-.176.141-.424-.529a9.87 9.87 0 0 1-.777 3.315c-.46 1.128-1.095 2.186-1.766 3.173l-.883 1.375-.035-1.692c-.036-.987-.283-1.975-.707-2.927-.388-.952-.988-1.869-1.412-2.856-1.307-2.891-.954-5.254-.954-5.324zM73.423 35.614c.212.105.424.176.636.282l-.636-.282c.036.035 0 .035 0 0z"/>
            <path fill="#000" d="M102.348 75.494c.212.881 3.178.987 3.426.211.282-.776.635-1.551 1.165-2.221.53-.67 1.342-1.305 2.296-1.446.953-.176 1.977.212 2.648.846.671.635 1.095 1.446 1.378 2.257.247.811.353 1.693.247 2.539a8.927 8.927 0 0 1-.671 2.398c-.636 1.516-1.59 2.82-2.578 4.02-1.695 2.044-3.603 3.808-5.58 5.535 2.401-.529 4.344-2.08 4.344-2.08l-3.673 9.38c4.202-7.758 11.83-12.377 11.83-12.377.248-.212-.14-16.185-10.206-25.353 0 0 .848-1.234.813-1.728-.46-6.558-9.43-14.386-11.796-15.938-.07-.035-.141-.105-.212-.14-1.978-1.2-4.203-1.975-6.463-2.504-2.26-.564-4.556-.917-6.887-1.234-1.165-.177-2.437-.388-3.673-.988-1.236-.564-2.26-1.445-3.108-2.433-.847-.987-1.518-2.08-2.048-3.173-.106-.212-.177-.388-.283-.6-.035.459-.07.917-.07 1.41 0 .741.035 1.482.141 2.222.07.353.565 1.834.636 1.87-.212-.107-.424-.212-.636-.283-.282-.74-1.413-2.786-1.413-6.1 0-.811.142-1.622.318-2.398l.53-2.574 1.06 2.504c.459 1.057.918 2.115 1.483 3.067.565.988 1.165 1.904 1.872 2.68.282.318.6.6.918.846.494-.352 8.758-6.981 13.279-10.472a162.89 162.89 0 0 1 2.613-2.01 159.476 159.476 0 0 1 5.686-3.808c-1.448 1.798-20.06 17.242-20.06 17.242.919.424 1.978.706 3.108.953 2.331.528 4.627 1.269 6.852 2.115 2.225.882 4.414 1.763 6.498 2.997 11.054 6.559 13.208 18.09 12.785 18.09 3.708 4.195 5.862 9.625 7.169 14.491 1.766 6.7 1.836 12.377 1.836 12.377s-4.944.212-12.36 13.329c-2.755 4.866-4.026 16.15-4.026 18.935 0 .987.035 1.94.07 2.926h-.106a59.841 59.841 0 0 1 0-11.248c.353-3.385.99-6.77 1.907-10.05 0 0 3.073-9.096 3.532-9.907.07-.141.106-.283.212-.424-.53.283-1.095.494-1.625.67-.741.247-1.483.424-2.083.74l-1.978 1.094 1.624-1.587c2.19-2.186 4.38-4.337 6.251-6.77.919-1.199 1.731-2.468 2.296-3.808.565-1.34.742-2.75.318-4.09-.389-1.305-1.413-2.433-2.614-2.257-.565.07-1.13.423-1.553.952a6.636 6.636 0 0 0-1.025 1.834c-.247.67-4.52 1.304-5.015-.459a18.092 18.092 0 0 1-.565-2.75c-.07-.952-.07-1.904 0-2.821.142-1.516.46-2.962.813-4.408-.53.247-1.06.494-1.554.776a15.1 15.1 0 0 0-2.26 1.693l-1.802 1.622.954-2.187c.883-2.01 1.766-4.02 2.013-6.135a8.71 8.71 0 0 0-.177-3.173 6.019 6.019 0 0 0-.953-2.116l.176-.141c.46.67 1.025 1.551 1.236 2.115.389 1.058.53 2.222.46 3.386-.106 1.622-.53 3.173-1.095 4.654.282-.212.565-.423.847-.6a12.351 12.351 0 0 1 2.755-1.304l.989-.353-.283 1.023c-.494 1.763-1.024 3.526-1.306 5.289-.142 1.763-.071 3.561.353 5.36zM70.492 72.285c.812 0 1.448.952 1.448 2.116 0 1.163-.636 2.115-1.448 2.115-.812 0-1.448-.952-1.448-2.115 0-1.164.671-2.116 1.448-2.116zM70.492 64.14c-.494.564-.989.987-1.518 1.41-.53.423-1.06.846-1.696 1.199.283-.67.777-1.199 1.307-1.657.565-.459 1.2-.811 1.907-.952z"/>
            <path fill="#F9D9A9" d="M67.278 66.749c.636-.353 1.166-.776 1.696-1.199.53-.423 1.024-.846 1.518-1.41-.742.14-1.342.493-1.907.916-.53.494-1.024 1.023-1.307 1.693zm1.766 7.652c0 1.163.636 2.115 1.448 2.115.812 0 1.448-.952 1.448-2.115 0-1.164-.636-2.116-1.448-2.116-.777 0-1.448.952-1.448 2.116zm6.57-13.823s-2.932-4.654-1.202-12.623c.6 4.231 6.958 14.563 6.958 14.563l-.106-9.098 2.33 6.735 1.201-1.058c1.554-1.34 6.04-7.687 6.64-8.462.035.07-.318 2.433.883 5.289.424 1.022 1.024 1.904 1.413 2.856.388.952.67 1.94.706 2.927l.035 1.692.883-1.375c.671-.987 1.307-2.045 1.766-3.174a9.87 9.87 0 0 0 .777-3.314l.424.529c.459.635.777 1.34.953 2.116a8.754 8.754 0 0 1 .177 3.173c-.247 2.116-1.13 4.126-2.013 6.135l-.954 2.187 1.801-1.622a15.1 15.1 0 0 1 2.26-1.693 12.763 12.763 0 0 1 1.555-.776c-.354 1.446-.671 2.927-.813 4.408-.07.952-.106 1.904 0 2.82.07.953.318 1.87.565 2.751.495 1.763 4.768 1.129 5.015.459.248-.67.6-1.34 1.025-1.834.423-.529.953-.882 1.553-.952 1.201-.176 2.19.917 2.614 2.257.424 1.304.247 2.715-.318 4.09-.565 1.34-1.377 2.61-2.296 3.808-1.836 2.398-4.026 4.584-6.25 6.77l-1.625 1.587 1.978-1.093c.6-.317 1.377-.494 2.083-.74.53-.177 1.13-.388 1.625-.67l-.212.423c-.495.846-3.532 9.908-3.532 9.908-.918 3.28-1.589 6.664-1.907 10.05a59.841 59.841 0 0 0 0 11.247l.424.353a6.832 6.832 0 0 1-2.755 1.657c-1.024.388-2.154.6-3.249.917-1.13.317-2.26.67-3.32 1.199a20.379 20.379 0 0 0-3.072 1.763c-.954.67-1.907 1.41-2.649 2.398-1.483 2.01-1.59 4.83-.353 6.805v.212h-.46c-1.412-.036-2.79-.07-4.202-.141L80.91 136c-.353-.035-.741-.035-.953-.07h-.07v-.917c0-2.927-.213-5.853-.601-8.78-.46-3.49-1.06-6.946-1.766-10.402-1.483-6.876-3.496-13.575-5.227-20.345-.035-.177-.07-.353-.141-.494.318.212.706.353 1.024.353.742.035 7.805-5.607 8.617-6.77l-.176-.177a88.039 88.039 0 0 0-3.638 1.94l-3.531 1.939-.424.247c-.141.07-.212.105-.318.176-.035 0-.035.035-.07.035-.036-.106-.036-.247-.036-.352-1.024-13.858 1.483-19.605 1.625-19.888-2.473 4.302-4.097 17.701-4.097 18.583-.07-.212-.106-.423-.141-.635a16.359 16.359 0 0 1-.283-1.27l-.141-.634c-.036-.211-.07-.388-.106-.6-.07-.528-.177-.916-.247-1.374l-.283-1.305c-.706-3.42-1.377-6.84-1.978-10.296-.6-3.456-1.165-6.911-1.518-10.367-.177-1.728-.318-3.49-.353-5.219-.036-1.727 0-3.49.459-5.183l.212-.07c.317.74.741 1.445 1.236 2.08 1.412 1.869 3.46 3.385 5.898 3.95l1.73.422zm16.845 14.457c0-1.41-.777-2.539-1.766-2.539-.953 0-1.766 1.129-1.766 2.54 0 1.41.777 2.538 1.766 2.538.99 0 1.766-1.128 1.766-2.539zm0-10.543c-.494-.493-1.095-.846-1.695-1.128a9.315 9.315 0 0 0-3.92-.846c-.671 0-1.342.07-2.013.317.635.282 1.271.458 1.907.635a36.15 36.15 0 0 0 3.743.81c.636.106 1.272.212 1.978.212z"/>
            <path fill="#000" d="M67.102 75.106c-.495-3.491-2.614-13.752-1.166-22.285l.671 1.375c-.459 1.693-.494 3.42-.459 5.183.035 1.728.177 3.491.353 5.219.354 3.456.919 6.911 1.519 10.367.6 3.455 1.271 6.876 1.978 10.296l.282 1.305c.07.458.177.81.247 1.375.036.211.036.388.106.6l.142.634c.07.423.176.846.282 1.27.036.21.106.422.141.634-.035-.882 1.625-14.245 4.097-18.583-.141.283-2.684 6.03-1.624 19.888 0 .105.035.246.035.352.035 0 .035 0 .07-.035a.98.98 0 0 0 .318-.176l.424-.247 3.532-1.94a69.968 69.968 0 0 1 3.638-1.939l.176.176c-.812 1.164-7.876 6.77-8.617 6.77-.318 0-.707-.14-1.024-.352.035.176.07.317.14.494 1.731 6.77 3.744 13.47 5.228 20.345a148.692 148.692 0 0 1 1.766 10.402c.388 2.892.6 5.818.6 8.78h-.6c-.318-2.927-.813-5.818-1.378-8.674a52.501 52.501 0 0 1-6.074 1.869c2.013-.882 3.955-1.904 5.827-2.997-.6-2.998-1.307-5.96-1.942-8.921-1.696-6.77-3.25-13.611-4.839-20.417-.388-1.727-.777-3.42-1.13-5.148-.07-.423-.176-.846-.247-1.304l-.106-.67c-.035-.212-.07-.494-.106-.705a10.068 10.068 0 0 0-.212-1.235l-.247-1.304a172.977 172.977 0 0 1-1.801-10.402z"/>
            <path fill="#000" d="M74.412 47.955c-1.73 7.969 1.201 12.623 1.201 12.623l-1.695-.388c-2.402-.564-4.485-2.045-5.898-3.949-.494-.635-.883-1.34-1.236-2.08-.53-1.234-.848-2.539-.883-3.879-.848.317-1.695.705-2.543 1.128l-.353-.67a36.01 36.01 0 0 1 3.143-1.445l.565-.247v.635c0 1.057.177 2.115.6 3.103.39.987.954 1.904 1.625 2.715a9.425 9.425 0 0 0 3.532 2.574c-.53-1.375-.777-2.856-.777-4.337a11.683 11.683 0 0 1 1.801-6.065l1.413-2.186s-.036.916.353 2.362l-.848.106zM120.854 176.058c-1.978 3.773-4.803 15.69-4.91 16.36a3.667 3.667 0 0 0 0 .882c.036.283.142.494.319.776.176.282.388.564.565.917.176.353.317.776.353 1.199.07.846-.141 1.587-.318 2.257-.212.67-.424 1.304-.53 1.939-.106.635-.176 1.27-.141 1.94.035 1.304.282 2.609.6 3.913l-1.483.318c-.283-1.376-.494-2.786-.494-4.232.035-.74.106-1.48.247-2.186.176-.74.424-1.41.636-2.045.211-.635.388-1.234.353-1.798 0-.282-.071-.53-.177-.811-.106-.247-.318-.53-.494-.882-.177-.317-.354-.74-.389-1.164a4.13 4.13 0 0 1 .07-1.163c.142-.705.248-1.375.425-2.045 1.765-7.617 1.518-10.05 1.518-10.05-1.66 1.834-2.649 2.715-4.485 4.373-1.872 1.657-2.967 2.574-4.944 4.055-1.66 15.973-.106 30.289.176 32.51l.46 3.315c.176 1.093.353 2.221.423 3.385.07 1.163.07 2.398-.176 3.596-.212 1.2-.636 2.292-1.06 3.386-.883 2.115-2.013 4.196-3.567 5.994a13.974 13.974 0 0 1-2.613 2.398 21.702 21.702 0 0 1-2.967 1.833 80.373 80.373 0 0 1-6.11 2.892c-2.083.881-4.379 1.586-6.71 1.692-2.295.141-4.556-.106-6.78-.247a34.771 34.771 0 0 0-3.32-.07c-1.095.035-2.19.14-3.32.282-1.095.14-2.225.282-3.355.317-1.13.035-2.296-.07-3.39-.282-.53-.106-1.06-.247-1.59-.352l.106-.565c.53.106 1.06.247 1.59.353 1.094.212 2.154.317 3.248.247 1.095-.07 2.19-.212 3.285-.388 1.095-.176 2.225-.353 3.355-.423s2.26-.07 3.39-.07c2.26.035 4.486.14 6.605-.071 2.154-.212 4.202-.882 6.18-1.799.989-.458 1.978-.952 2.967-1.445.988-.494 1.977-.988 2.93-1.552 1.908-1.058 3.638-2.292 4.98-3.914 1.343-1.622 2.331-3.561 3.144-5.536.423-.987.741-2.01.953-2.997.212-.987.212-2.01.141-3.103-.07-1.058-.211-2.15-.353-3.244l-.423-3.35a138.738 138.738 0 0 1-.672-6.7c-.353-4.477-.812-22.496-.317-24.118-1.837 1.34-2.331 1.622-4.274 2.821a104.777 104.777 0 0 1-6.427 3.703c-.565.282-1.095.564-1.66.846-.565.282-1.13.529-1.695.776-1.13.493-2.296 1.022-3.567 1.375-2.508.74-5.157.881-7.664.67-2.543-.212-4.98-.705-7.381-1.27-4.768-1.128-9.43-2.503-14.092-2.503h-1.271l.106-1.27c.07-.67.106-1.34.176-2.01v-.07c.177-1.798.283-4.302 1.06-7.44.6-2.468 1.554-5.324 3.25-8.568.458-.882.953-1.658 1.412-2.292 1.73-2.292 3.425-3.103 3.99-3.28.742-.211 19.601 3.174 19.601 3.174a6.677 6.677 0 0 1 1.837-2.927l.812-.776.46.988c.458.987.847 1.974 1.27 2.997-.035-.6-.035-1.164 0-1.763l.071-1.763.918 1.446 2.932 4.619c0-.388-.036-.74-.036-1.129 0-.881 0-1.727.071-2.609l.07-.987.354.106.212.035a55.22 55.22 0 0 0 0 3.42c.035.846.07 1.728.141 2.574l.106 1.481-.848-1.234-2.86-4.16c.141 1.939.459 3.878.953 5.747l-1.271.352a83.305 83.305 0 0 0-3.002-7.404 5.187 5.187 0 0 0-.777 2.01l-.141.88-.883-.175-11.443-2.398-5.721-1.199-1.413-.282c-.424-.07-.741-.07-.953-.035-.389.07-1.166.916-1.766 1.551-2.472 2.715-3.92 6.241-4.803 9.908-.777 3.28-1.13 6.7-1.413 10.12 4.662.212 9.076 1.481 13.385 2.469 2.366.529 4.697 1.022 7.028 1.198 2.331.177 4.627.036 6.816-.599 1.095-.317 2.155-.74 3.25-1.234a72.528 72.528 0 0 0 1.624-.74c.53-.247 1.06-.53 1.625-.812a91.906 91.906 0 0 0 17.906-12.094c3.601-3.174 6.921-6.664 9.64-10.578 2.72-3.914 4.839-8.251 5.863-12.87 1.06-4.62.989-9.45-.176-14.07-.495-2.292-1.554-4.478-2.331-6.876-.177-.599-.354-1.198-.46-1.833-.105-.635-.176-1.305-.247-1.869-.035-.564-.14-1.093-.388-1.41-.247-.353-.636-.53-.883-.459l-1.766.6 1.06-1.552c.317-.494.353-1.199.106-1.833a3.284 3.284 0 0 0-1.307-1.622c-1.272-.811-2.931-.952-4.556-1.129l-9.853-1.163-.212-.036v-.211c0-1.763.035-3.526-.318-5.254-.177-.846-.46-1.728-1.095-2.327-.318-.282-.706-.494-1.13-.53v-.07c.459.036.883.212 1.236.494.706.6 1.024 1.516 1.271 2.362.46 1.658.495 3.385.53 5.078l9.677.776c1.624.14 3.39.176 5.015 1.093a4.23 4.23 0 0 1 1.836 2.08c.248.6.354 1.305.212 2.01.106.035.177.07.283.106.388.176.706.458.953.776.495.67.6 1.41.671 2.045.071.634.142 1.163.248 1.727.14.565.282 1.129.494 1.693.742 2.221 1.942 4.443 2.543 6.911 1.307 4.796 1.483 9.979.459 14.88-1.024 4.937-3.179 9.556-5.969 13.646-1.165 1.94-.883 1.622-1.412 2.645z"/>
            <path fill="#603913" d="M68.938 55.465a10.084 10.084 0 0 1-1.624-2.715 8.508 8.508 0 0 1-.6-3.103v-.634l-.566.247a36.01 36.01 0 0 0-3.143 1.445 38.67 38.67 0 0 0-2.613 1.516 7.756 7.756 0 0 1-.6-2.362c-.071-.952.034-1.904.352-2.786l.46-1.304-1.166.81c-1.73 1.2-3.32 2.61-4.662 4.232.318-1.587.918-3.103 1.73-4.513a15.485 15.485 0 0 1 2.296-2.962 14.073 14.073 0 0 1 3.002-2.222l2.013-1.058-2.083-.881a14.722 14.722 0 0 0-3.638-1.023c.53-.317 1.095-.634 1.695-.916a18.701 18.701 0 0 1 4.556-1.517c3.179-.634 6.534-.529 9.712.423l.106-.211c-.07-.07-.565-1.516-.636-1.869-.106-.74-.176-1.48-.14-2.221 0-.459.034-.952.07-1.41.106.21.176.422.282.599.53 1.128 1.166 2.221 2.049 3.173.847.987 1.871 1.869 3.108 2.433 1.236.6 2.507.776 3.672.987 2.296.318 4.592.67 6.887 1.235 2.26.528 4.485 1.304 6.463 2.503.07.035.141.07.212.141l-.812 1.375-4.168 5.889a44.745 44.745 0 0 1-3.637 4.478 31.944 31.944 0 0 1-2.932 2.856l-.635-1.375c-.46-.952-.883-1.904-1.378-2.856l-2.225-4.478-.282 4.971-.177 3.244c-2.825-2.961-3.99-5.853-4.485-7.792-.353-1.446-.353-2.363-.353-2.363l-1.413 2.187a11.683 11.683 0 0 0-1.8 6.064 11.365 11.365 0 0 0 .776 4.337c-1.448-.528-2.684-1.445-3.673-2.574z"/>
            <path fill="#000" d="M58.52 158.886c.212-.882.318-1.834.388-2.75.106-1.87 0-3.738-.141-5.572.212 1.869.46 3.703.424 5.607 0 .952-.07 1.868-.247 2.82a18.608 18.608 0 0 1-.742 2.75 41.498 41.498 0 0 0-1.448 5.36 40.59 40.59 0 0 0-.706 5.466l-1.236-.106a42.913 42.913 0 0 1 1.024-5.571c.459-1.834 1.095-3.632 1.766-5.36.388-.881.706-1.727.918-2.644zM74.094 35.93l-.106.212c-3.178-.987-6.568-1.057-9.712-.423a19.76 19.76 0 0 0-4.555 1.517c-.566.282-1.13.599-1.696.916 1.272.177 2.473.494 3.638 1.023l2.084.881-2.013 1.058c-1.095.564-2.12 1.34-3.002 2.222-.919.881-1.66 1.869-2.296 2.962a14.593 14.593 0 0 0-1.73 4.513 24.096 24.096 0 0 1 4.661-4.231l1.166-.811-.46 1.304a7.383 7.383 0 0 0-.352 2.786c.07.811.282 1.587.6 2.362a38.67 38.67 0 0 1 2.613-1.516l.354.67a21.84 21.84 0 0 0-2.932 1.693l-.353.247-.212-.353a8.013 8.013 0 0 1-.918-2.997c-.07-.6-.07-1.2 0-1.834a19.846 19.846 0 0 0-4.591 5.853l-1.236 2.328-.283-2.68c-.318-2.892.353-5.853 1.73-8.392.672-1.27 1.59-2.433 2.65-3.491.494-.494.988-.917 1.553-1.305a13.603 13.603 0 0 0-3.602-.388l-3.037.106 2.33-1.869a17.867 17.867 0 0 1 4.557-2.644c1.624-.67 3.32-1.129 5.05-1.305 3.214-.388 6.498.035 9.394 1.27v.035l.706.282z"/>
            <path fill="#FFF" d="M100.759 159.38c.67-.53.777-1.482.247-2.116-.53-.67-1.484-.776-2.12-.247-.67.529-.776 1.48-.246 2.116a1.51 1.51 0 0 0 2.119.246zm-44.888 7.51a42.913 42.913 0 0 0-1.024 5.571l1.236.106a40.59 40.59 0 0 1 .706-5.465c.353-1.834.848-3.597 1.448-5.36.283-.882.565-1.798.742-2.75.176-.953.247-1.87.247-2.821 0-1.87-.212-3.738-.424-5.607.106 1.869.248 3.738.142 5.571-.071.917-.177 1.834-.389 2.75-.212.882-.53 1.764-.848 2.645a39.95 39.95 0 0 0-1.836 5.36zm45.417-6.312l-4.414 4.76c-1.448 1.587-2.932 3.174-4.38 4.796l.177.776v.035c.035.6.989 1.975 2.508 2.292l-.071.212-.353-.106-.07.987c-.072.882-.072 1.763-.072 2.61 0 .352.036.74.036 1.128l-2.896-4.62-.918-1.445-.071 1.763c-.035.6-.035 1.163 0 1.763a44.855 44.855 0 0 0-1.271-2.997l-.46-.988-.812.776a7.103 7.103 0 0 0-1.836 2.927s-18.86-3.385-19.601-3.174c-.6.177-2.296.988-3.99 3.28l-.354-.318c-1.766-.176-4.662-.634-6.286-1.375-1.59-.705-3.002-1.728-4.31-2.927-1.27-1.163-2.507-2.503-4.096-3.455a4.75 4.75 0 0 0-.847-.423l.035-.106c.494-3.738 2.295-10.332 5.297-15.127 1.378-2.186 3.32-4.16 4.415-6.735.247-.635.494-1.234.777-1.622.318-.423.565-.493 1.342-.705a2.678 2.678 0 0 0 1.13-.67 3.96 3.96 0 0 0 .742-1.023c.247-.493.388-.987.494-1.445 4.097.035 8.194-.847 11.902-2.68l.53-.247-.036-.564c-.035-1.023-.035-2.08-.035-3.138l.035-1.728c1.802 1.058 3.285 2.75 3.991 4.725.106.317.212.74.565 1.199.177.247.424.458.707.6.282.14.53.21.777.246.494.07.812.07 1.165.07l1.06.036c1.412.035 2.825.07 4.273.07 2.825 0 5.686-.105 8.511-.317 2.649-.212 5.298-.458 7.911-.811.777 3.138 1.413 6.312 2.013 9.52.6 3.244 1.024 6.524 1.413 9.803v.035c-.918.6-1.73 1.34-2.437 2.116l-2.19 2.221zm-.53-14.88c.672-.529.778-1.48.248-2.115-.53-.67-1.484-.776-2.12-.247-.67.529-.776 1.48-.246 2.115.53.635 1.448.74 2.119.247z"/>
            <path fill="#000" d="M79.25 135.014h.601v.917h.07c.213.035.601.035.954.07l1.06.036c1.412.07 2.79.105 4.202.14h.46c2.648.036 5.297 0 7.946-.105 2.79-.106 5.615-.317 8.405-.6l.565-.07.106.529c.671 3.385 1.272 6.805 1.625 10.226.388 3.279.635 6.593.741 9.908h-.035c-.388-3.28-.848-6.559-1.413-9.803-.6-3.208-1.236-6.382-2.013-9.52-2.648.352-5.262.635-7.91.81-2.826.212-5.687.283-8.512.318-1.413 0-2.825 0-4.273-.07l-1.06-.036c-.353-.035-.67 0-1.165-.07a2.466 2.466 0 0 1-.777-.247 1.945 1.945 0 0 1-.706-.6c-.354-.458-.46-.88-.566-1.198-.706-1.975-2.154-3.667-3.99-4.725l-.036 1.728c0 1.057 0 2.115.036 3.138l.035.564-.53.247c-3.673 1.798-7.805 2.68-11.901 2.68a8.766 8.766 0 0 1-.495 1.445 3.96 3.96 0 0 1-.742 1.023c-.317.317-.741.529-1.13.67-.777.247-1.024.282-1.342.705-.318.388-.53.987-.777 1.622-1.095 2.61-3.037 4.549-4.414 6.735-3.002 4.76-4.803 11.354-5.298 15.127l-1.589-.74c.177-2.645 4.591-12.695 6.04-14.951 1.412-2.292 3.107-4.337 4.025-6.7.247-.6.424-1.27.918-1.94.248-.352.566-.67.99-.88.423-.212.776-.283 1.024-.389.847-.282 1.2-1.41 1.447-2.68l.106-.634h.671c3.85.07 7.7-.811 11.196-2.433-.035-.882-.035-1.763-.035-2.61l.035-3.208v-1.305l1.236.459c2.896 1.163 5.191 3.526 6.216 6.417z"/>
            <path fill="#FFF" d="M57.072 193.618c-1.943-.67-4.097-.811-6.145-.635-1.06.07-2.12.247-3.144.423l-1.518.318c-.283.07-.6.105-.848.14-.494-.951-.989-1.939-1.2-2.997-.566-2.926-.354-3.35-.248-3.702 1.978.423 3.567.529 5.58.176 1.272-.211 2.437-.705 3.603-1.058 1.165-.352 2.436-.493 3.673-.282l1.306.177c-.777 3.138-.883 5.641-1.06 7.44z"/>
            <path fill="#000" d="M42.027 186.671l-.106-.035c.035.035.035.035.106.035z"/>
            <path fill="#F9D9A9" d="M49.479 186.812c-2.437.247-4.874-.211-7.205-.987-1.165-.388-2.366-.74-3.143-1.516-.389-.388-.671-.846-.742-1.34-.035-.106-.035-.247-.035-.353 0-.105.035-.246.035-.388.036-.176.07-.352.036-.599a1.432 1.432 0 0 0-.283-.67c-.282-.353-.6-.529-.883-.705-.247-.141-.494-.317-.742-.494-.459-.352-.882-.705-1.2-1.163a2.083 2.083 0 0 1-.424-1.41c0-.318.07-.6.212-.812.176-.14.318-.317.459-.529l1.59-2.68-2.473 1.905a2.013 2.013 0 0 0-.46.493c-.352.247-.882.318-1.447.247-.353-.035-.742-.176-1.095-.317a2.693 2.693 0 0 1-.459-.247c-.106-.106-.177-.176-.212-.247-.07-.176-.07-.529.035-.882l.212-.528c.07-.177.177-.353.283-.53.424-.705.953-1.304 1.59-1.868 1.27-1.093 2.824-1.869 4.414-2.504 1.624-.634 3.284-1.199 4.944-1.445 1.66-.247 3.355-.07 4.838.74 1.484.811 2.755 2.045 4.097 3.209 2.72 2.362 7.452 3.773 11.019 3.808l.353.317c-.494.635-.953 1.41-1.413 2.292a37.83 37.83 0 0 0-3.249 8.569L56.825 186c-1.201-.317-2.508-.282-3.744.036-1.236.246-2.402.67-3.602.775z"/>
            <path fill="#000" d="M42.239 185.86c2.33.74 4.768 1.234 7.204.988 1.201-.106 2.402-.53 3.603-.811 1.236-.318 2.542-.353 3.743-.036-1.236-.211-2.472-.07-3.673.282-1.165.353-2.366.847-3.602 1.058-2.013.353-3.602.247-5.58-.176-.07.353-.283.776.247 3.702.212 1.058.707 2.046 1.201 2.998.247-.036.565-.106.848-.141l1.518-.318c1.024-.176 2.084-.352 3.143-.423 2.049-.176 4.203-.035 6.145.635v.07a38.27 38.27 0 0 0-2.896.318c-.211.035-.459.07-.67.105.953 3.562 2.048 21.58 2.048 25.988 0 4.407-.177 8.815-.671 13.187-.495 4.232-1.2 8.428-2.084 12.588 3.673.953 7.346 1.905 11.019 2.75l-.106.565c-1.66-.388-3.284-.776-4.944-1.128-2.19-.494-4.38-.952-6.57-1.41l-.388-.071.07-.423a160.284 160.284 0 0 0 1.484-12.976c.318-4.338.565-8.675.636-13.047.07-4.337-2.084-25.67-2.79-25.529l-3.002.635c-3.567.776-4.38.317-4.38.317s-2.118-3.068-1.765-8.85c-.035 0-.07 0-.106-.036-1.166-.352-2.437-.67-3.496-1.586a3.477 3.477 0 0 1-1.095-1.834 3.082 3.082 0 0 1-.07-.564c0-.212.034-.388.034-.529.036-.317.036-.353-.07-.494-.212-.247-.883-.564-1.413-.952s-1.06-.81-1.483-1.41c-.424-.564-.707-1.34-.671-2.08v-.177c-.389.07-.742.035-1.095 0a5.248 5.248 0 0 1-1.448-.423c-.212-.106-.46-.212-.671-.388-.247-.176-.494-.458-.6-.74-.248-.635-.177-1.234 0-1.728.07-.247.176-.494.282-.67.106-.212.212-.423.353-.635a8.39 8.39 0 0 1 1.872-2.15c1.448-1.2 3.108-2.01 4.768-2.68 1.695-.635 3.39-1.2 5.227-1.411a10.561 10.561 0 0 1 2.79.035c.6.106 1.2.282 1.766.53l.847.422c1.625.952 2.826 2.292 4.097 3.456 1.271 1.199 2.684 2.186 4.309 2.927 1.589.74 4.52 1.198 6.286 1.375-3.532 0-8.3-1.41-11.019-3.808-1.342-1.164-2.613-2.398-4.097-3.21-1.483-.845-3.178-.986-4.838-.74-1.695.247-3.32.811-4.944 1.446-1.59.635-3.144 1.41-4.415 2.504a7.33 7.33 0 0 0-1.59 1.868c-.105.177-.211.353-.282.53a1.66 1.66 0 0 0-.212.528c-.106.353-.14.67-.035.882a.474.474 0 0 0 .212.247c.106.07.282.176.46.246a3.22 3.22 0 0 0 1.094.318c.565.07 1.06 0 1.448-.247.141-.176.282-.353.459-.494l2.472-1.904-1.59 2.68a1.66 1.66 0 0 1-.458.529 1.636 1.636 0 0 0-.212.81c0 .495.141.988.424 1.411.318.423.741.811 1.2 1.164.248.176.495.317.742.494.283.176.6.352.883.705.141.176.247.423.283.67.035.247 0 .458-.036.6-.035.176-.035.281-.035.387 0 .106 0 .247.035.353.07.493.353.952.742 1.34.742.81 1.942 1.198 3.108 1.586zM88.539 93.336c-.07-.247-.353-.423-.565-.318l.035.07c.177-.034.283.177.247.283 0 .141-.106.247-.247.353-.247.211-1.695 1.727-7.134 3.279l.036.07c6.64-1.022 7.663-3.455 7.628-3.737z"/>
            <path fill="#F7941D" d="M64.241 194.817l-1.801-.318c.177-1.551 2.048-16.22 7.17-20.627l1.906.352c-3.708 3.244-6.71 15.233-7.275 20.593z"/>
            <path fill="#F7941D" d="M66.89 195.275l-1.801-.317c.176-1.552 2.048-16.22 7.169-20.628l1.907.353c-3.708 3.208-6.71 15.232-7.275 20.592zM62.828 150.67v-.035-.036c.036-.246.212-.352.46-.387.14-.036.317-.036.459-.071.53-.07 1.06-.141 1.624-.247l1.484-.211c.105 0 .14-.07.176-.141.495-1.023 1.024-2.08 1.519-3.103.106-.212.212-.388.459-.459h.07c.248.036.354.247.46.459.14.317.317.634.459.952.353.74.706 1.445 1.06 2.186.035.07.07.106.14.106.424.07.848.105 1.272.176a56.3 56.3 0 0 1 2.401.353c.283.035.46.282.389.528a.768.768 0 0 1-.177.283c-.847.846-1.695 1.692-2.578 2.503-.07.07-.106.106-.07.212.07.282.105.564.14.881.142.882.319 1.728.46 2.61a.723.723 0 0 1 0 .387c-.106.177-.353.353-.636.177a267.226 267.226 0 0 0-3.214-1.693c-.07-.035-.106-.035-.176 0a9.306 9.306 0 0 1-.6.317c-.883.459-1.766.917-2.614 1.376-.106.035-.212.105-.318.07-.282-.035-.424-.247-.388-.529.07-.352.14-.74.176-1.093.142-.81.283-1.657.424-2.468 0-.106 0-.141-.07-.212-.813-.81-1.66-1.586-2.473-2.397-.141-.141-.282-.282-.318-.494zM63.217 145.592c.212.635.459 1.27.67 1.87a.59.59 0 0 0 .283.387c.283.176.954.212 1.342.247-.776-.846-1.518-1.693-2.295-2.504zM74.448 145.592c-.565.318-1.166.67-1.73.988-.142.07-.248.14-.319.352-.106.318-.035.952.036 1.375.67-.916 1.342-1.833 2.013-2.715z"/>
            <path fill="#F7941D" d="M76.884 155.642c-.494-.459-.953-.917-1.448-1.375-.105-.106-.211-.212-.423-.212-.318-.035-.954.247-1.307.388a116.6 116.6 0 0 0 3.178 1.199zM68.302 160.79c.424-.494.883-.987 1.307-1.481.106-.106.212-.212.212-.423 0-.318-.282-.917-.459-1.305-.353 1.058-.706 2.151-1.06 3.209zM60.78 155.007c.671.141 1.307.247 1.978.388.141.035.282.07.459-.035.282-.177.67-.706.883-1.058-1.095.211-2.225.458-3.32.705z"/>
            <path fill="#B7E2E0" d="M28.253 89.245H14.445c-2.331 0-4.238-1.904-4.238-4.23v-3.21c0-2.327 1.907-4.231 4.238-4.231h13.808c2.331 0 4.238 1.904 4.238 4.231v3.21c0 2.326-1.907 4.23-4.238 4.23zM165.635 190.62h-13.844c-2.33 0-4.238-1.903-4.238-4.23v-3.21c0-2.327 1.907-4.23 4.238-4.23h13.844c2.331 0 4.238 1.903 4.238 4.23v3.21c0 2.327-1.907 4.23-4.238 4.23zM172.169 83.427h-13.844c-2.331 0-4.238-1.904-4.238-4.23v-8.323c0-2.327 1.907-4.23 4.238-4.23h13.844c2.33 0 4.238 1.903 4.238 4.23v8.287c0 2.362-1.907 4.266-4.238 4.266z"/>
        </g>
    </g>
</svg>
