<svg style="position: absolute; width: 0; height: 0; overflow: hidden;" version="1.1" xmlns="http://www.w3.org/2000/svg"
     xmlns:xlink="http://www.w3.org/1999/xlink">
    <defs>

        <symbol id="star-empty" viewBox="0 0 48 48">
            <title>star-empty</title>
            <g fill="#E8E0E0" fill-rule="nonzero">
                <path d="M29.582 40.147a.5.5 0 0 1-.464.886l-.84-.44a.5.5 0 0 1 .464-.886l.84.44z"/>
                <path d="M11.064 44.006l12.703-6.679a.5.5 0 0 1 .467 0l2.99 1.58a.5.5 0 1 1-.468.885L24 38.335l-13.366 7.028a.5.5 0 0 1-.726-.528l2.556-14.88L1.65 19.418a.5.5 0 0 1 .277-.853l14.94-2.172 6.684-13.534a.5.5 0 0 1 .896 0l6.684 13.534 14.94 2.172a.5.5 0 0 1 .277.853L35.537 29.955l2.556 14.88a.5.5 0 0 1-.726.528l-6.68-3.51a.5.5 0 0 1 .466-.886l5.783 3.04-2.429-14.142a.5.5 0 0 1 .144-.443l10.274-10.013-14.197-2.064a.5.5 0 0 1-.376-.274L24 4.21l-6.352 12.862a.5.5 0 0 1-.376.274L3.075 19.409l10.274 10.013a.5.5 0 0 1 .144.443l-2.429 14.14z"/>
            </g>
        </symbol>

        <symbol id="star-half" viewBox="0 0 34 32">
            <title>star-half</title>
            <path class="path-star-half"
                  d="M 33.412,12.395 21.57,11.374 16.942,0.47 12.314,11.39 0.472,12.395 9.465,20.186 6.764,31.765 16.943,25.621 27.122,31.765 24.437,20.186 33.413,12.395 Z M 16.941,22.541 c 0,0 -0.297971,-14.6455833 0,-15.318 l 2.816,6.654 7.214,0.626 -5.468,4.744 1.647,7.049 z"/>
        </symbol>

        <symbol id="star-filled" viewBox="0 0 48 48">
            <title>star-filled</title>
            <g fill="none" fill-rule="evenodd">
                <path fill="#F9F871" d="M26.99 39.35L24 37.77l-13.6 7.15L13 29.78 2 19.06l15.2-2.21L24 3.08l6.8 13.77L46 19.06 35 29.78l2.6 15.14-6.68-3.51"/>
                <path fill="#E2E267" fill-rule="nonzero" d="M29.582 40.147a.5.5 0 0 1-.464.886l-.84-.44a.5.5 0 0 1 .464-.886l.84.44z"/>
                <path fill="#E2E267" fill-rule="nonzero" d="M11.064 44.006l12.703-6.679a.5.5 0 0 1 .467 0l2.99 1.58a.5.5 0 1 1-.468.885L24 38.335l-13.366 7.028a.5.5 0 0 1-.726-.528l2.556-14.88L1.65 19.418a.5.5 0 0 1 .277-.853l14.94-2.172 6.684-13.534a.5.5 0 0 1 .896 0l6.684 13.534 14.94 2.172a.5.5 0 0 1 .277.853L35.537 29.955l2.556 14.88a.5.5 0 0 1-.726.528l-6.68-3.51a.5.5 0 0 1 .466-.886l5.783 3.04-2.429-14.142a.5.5 0 0 1 .144-.443l10.274-10.013-14.197-2.064a.5.5 0 0 1-.376-.274L24 4.21l-6.352 12.862a.5.5 0 0 1-.376.274L3.075 19.409l10.274 10.013a.5.5 0 0 1 .144.443l-2.429 14.14z"/>
            </g>
        </symbol>

    </defs>
</svg>
