<?xml version="1.0" encoding="UTF-8"?>
<svg width="48px" height="48px" viewBox="0 0 48 48" version="1.1" xmlns="http://www.w3.org/2000/svg" xmlns:xlink="http://www.w3.org/1999/xlink">
    <!-- Generator: sketchtool 52.5 (67469) - http://www.bohemiancoding.com/sketch -->
    <title>2AA5DDC5-CAAB-4858-943F-0AF2DE2FDC30</title>
    <desc>Created with sketchtool.</desc>
    <g id="Icons" stroke="none" stroke-width="1" fill="none" fill-rule="evenodd">
        <g id="ic/--navbar/--review-deactive" fill="#A2A2A2" fill-rule="nonzero">
            <g id="icon-review-copy" transform="translate(1.000000, 0.000000)">
                <path d="M1.94499792,26.042792 L10.2821611,29.3043635 C10.4997662,29.3894925 10.6293938,29.6139835 10.5943424,29.8450037 L10.3743424,31.2950037 C10.3329191,31.5680215 10.0780141,31.7557658 9.80499632,31.7143424 C9.53197853,31.6729191 9.34423417,31.4180141 9.38565756,31.1449963 L9.545717,30.0900591 L0.817838913,26.6756365 C0.469434469,26.5393376 0.388639602,26.0827149 0.66912153,25.8351408 L7.70000143,19.6291663 L3.21105221,11.3994261 C3.0318974,11.0709756 3.26371245,10.6693289 3.63773375,10.6601505 L13.0185991,10.4299452 L14.869828,1.23135224 C14.943659,0.864492306 15.379536,0.70577602 15.6719732,0.9392664 L23,6.79017788 L30.3280268,0.9392664 C30.620464,0.70577602 31.056341,0.864492306 31.130172,1.23135224 L32.9812863,10.4293759 L34.3115576,10.4601336 C34.5876262,10.4665167 34.8062495,10.695489 34.7998664,10.9715576 C34.7934833,11.2476262 34.564511,11.4662495 34.2884424,11.4598664 L32.5584424,11.4198664 C32.3247259,11.4144626 32.1259515,11.2478315 32.079828,11.0186478 L30.3115216,2.23208894 L23.3119732,7.8207336 C23.1295042,7.96642213 22.8704958,7.96642213 22.6880268,7.8207336 L15.6884784,2.23208894 L13.920172,11.0186478 C13.8741008,11.2475715 13.6757096,11.4141208 13.4422662,11.4198495 L4.48122691,11.6397523 L8.76894779,19.5005739 C8.88070539,19.7054629 8.8358526,19.9604141 8.66087847,20.1148592 L1.94499792,26.042792 Z" id="Shape"></path>
                <path d="M10.0137747,33.6686544 C9.97033512,33.9413586 9.71404987,34.1272144 9.44134562,34.0837747 C9.16864136,34.0403351 8.98278565,33.7840499 9.02622527,33.5113456 L9.20622527,32.3813456 C9.24966488,32.1086414 9.50595013,31.9227856 9.77865438,31.9662253 C10.0513586,32.0096649 10.2372144,32.2659501 10.1937747,32.5386544 L10.0137747,33.6686544 Z" id="Shape"></path>
                <path d="M41.5211427,11.635408 L38.9950366,11.559776 C38.719018,11.551512 38.5019599,11.3210553 38.510224,11.0450366 C38.518488,10.769018 38.7489447,10.5519599 39.0249634,10.560224 L42.3649634,10.660224 C42.7377485,10.6713852 42.9675367,11.072013 42.7889478,11.3994261 L38.2999986,19.6291663 L45.3308785,25.8351408 C45.6113604,26.0827149 45.5305655,26.5393376 45.1821611,26.6756365 L36.4540064,30.0901673 L37.8543967,39.3653548 C37.9102415,39.7352307 37.5550329,40.0332023 37.2005066,39.9138796 L28.3090433,36.9212835 L23.4269313,44.9302492 C23.232068,45.2499169 22.767932,45.2499169 22.5730687,44.9302492 L17.6909567,36.9212835 L8.79949345,39.9138796 C8.44507675,40.0331654 8.08993169,39.7354068 8.14556396,39.3656158 L8.82556396,34.8456158 C8.86664521,34.5725463 9.1213147,34.3844827 9.39438418,34.425564 C9.66745366,34.4666452 9.85551729,34.7213147 9.81443604,34.9943842 L9.25619466,38.7050474 L17.7505066,35.8461204 C17.9718849,35.7716112 18.2153529,35.8603049 18.3369313,36.0597508 L23,43.7093821 L27.6630687,36.0597508 C27.7846471,35.8603049 28.0281151,35.7716112 28.2494934,35.8461204 L36.7433449,38.7048924 L35.4056033,29.8446452 C35.3707397,29.6137338 35.5003602,29.3894431 35.7178389,29.3043635 L44.0550021,26.042792 L37.3391215,20.1148592 C37.1641474,19.9604141 37.1192946,19.7054629 37.2310522,19.5005739 L41.5211427,11.635408 Z" id="Shape"></path>
                <path d="M35.7679553,11.4998549 C35.4918931,11.4932028 35.273493,11.2640175 35.2801451,10.9879553 C35.2867972,10.7118931 35.5159825,10.493493 35.7920447,10.5001451 L37.4520447,10.5401451 C37.7281069,10.5467972 37.946507,10.7759825 37.9398549,11.0520447 C37.9332028,11.3281069 37.7040175,11.546507 37.4279553,11.5398549 L35.7679553,11.4998549 Z" id="Shape"></path>
                <path d="M20.1704689,26.9521112 L31.1262904,15.9866029 C31.3214663,15.7912545 31.6380487,15.7911146 31.8333971,15.9862904 C32.0287455,16.1814663 32.0288854,16.4980487 31.8337096,16.6933971 L20.5237096,28.0133971 C20.3282289,28.2090507 20.0110438,28.2088406 19.8158225,28.0129282 L14.1658225,22.3429282 C13.9709057,22.1473214 13.971465,21.8307394 14.1670718,21.6358225 C14.3626786,21.4409057 14.6792606,21.441465 14.8741775,21.6370718 L20.1704689,26.9521112 Z" id="Shape"></path>
            </g>
        </g>
    </g>
</svg>