<?xml version="1.0" encoding="UTF-8"?>
<svg width="48px" height="48px" viewBox="0 0 48 48" version="1.1" xmlns="http://www.w3.org/2000/svg" xmlns:xlink="http://www.w3.org/1999/xlink">
    <!-- Generator: sketchtool 52.5 (67469) - http://www.bohemiancoding.com/sketch -->
    <title>C83737EC-8AAE-44C2-A1E7-84827EFA9838</title>
    <desc>Created with sketchtool.</desc>
    <g id="Icons" stroke="none" stroke-width="1" fill="none" fill-rule="evenodd">
        <g id="ic/--navbar/--profile-deactive" fill="#A2A2A2" fill-rule="nonzero">
            <g id="icon-app-bar-profile-outline" transform="translate(1.000000, 1.000000)">
                <path d="M13.6498533,22.0922415 C13.7811637,22.3351657 13.6906828,22.6385429 13.4477585,22.7698533 C13.2048343,22.9011637 12.9014571,22.8106828 12.7701467,22.5677585 C12.5892199,22.2330439 12.4256709,21.8971053 12.1960203,21.3995291 C12.0803006,21.148803 12.1897449,20.85174 12.4404709,20.7360203 C12.691197,20.6203006 12.98826,20.7297449 13.1039797,20.9804709 C13.3255291,21.4604947 13.4811112,21.7800687 13.6498533,22.0922415 Z" id="Shape"></path>
                <path d="M12.5731033,19.7514919 C12.6772135,20.0072568 12.554273,20.2989932 12.2985081,20.4031033 C12.0427432,20.5072135 11.7510068,20.384273 11.6468967,20.1285081 C10.7633751,17.9579817 10.2800063,15.6454619 10.2202034,13.304261 C10.0873926,8.64971911 12.4946968,4.29076393 16.5049688,1.92430722 C20.5152408,-0.442149481 25.4947592,-0.442149481 29.5050312,1.92430722 C33.5153032,4.29076393 35.9226074,8.64971911 35.79,13.29 C35.79,21.160546 29.55318,30.5 23,30.5 C19.4535241,30.5 16.0607646,27.9692446 13.5153431,23.8739442 C13.3695708,23.6394127 13.4415243,23.3311155 13.6760558,23.1853431 C13.9105873,23.0395708 14.2188845,23.1115243 14.3646569,23.3460558 C16.7458026,27.1770548 19.8599694,29.5 23,29.5 C28.8956376,29.5 34.79,20.6733663 34.7902034,13.275739 C34.9126303,8.98511751 32.6935438,4.96697196 28.9968192,2.78553924 C25.3000947,0.604106514 20.7099053,0.604106514 17.0131808,2.78553924 C13.3164562,4.96697196 11.0973697,8.98511751 11.2198369,13.2772319 C11.2765986,15.4992925 11.7350772,17.6927331 12.5731033,19.7514919 Z" id="Shape"></path>
                <path d="M35.07,44.5 C35.3461424,44.5 35.57,44.7238576 35.57,45 C35.57,45.2761424 35.3461424,45.5 35.07,45.5 L3,45.5 C1.61928813,45.5 0.5,44.3807119 0.5,43 L0.50000032,37.6994344 C0.505809042,32.5645077 4.66394972,28.4016418 9.8,28.39 L12.8034322,28.3900118 C13.5108153,28.3948676 14.183028,28.6991801 14.6463479,29.2197218 C17.2041282,31.9734611 20.0851323,33.5 23,33.5 C25.9136418,33.5 28.7940478,31.9750792 31.3565776,29.2275009 C31.829888,28.6959364 32.507332,28.3913139 33.22,28.39 L36.221136,28.3900013 C41.353256,28.4016619 45.5058449,32.5684396 45.5,37.7 L45.5,43 C45.5,44.3807119 44.3807119,45.5 43,45.5 L39.72,45.5 C39.4438576,45.5 39.22,45.2761424 39.22,45 C39.22,44.7238576 39.4438576,44.5 39.72,44.5 L43,44.5 C43.8284271,44.5 44.5,43.8284271 44.5,43 L44.5000003,37.6994305 C44.505217,33.1191425 40.7991431,29.4004055 36.22,29.39 L33.2209224,29.3899991 C32.7938751,29.390787 32.3874087,29.5735605 32.0956642,29.9010127 C29.3511349,32.8439417 26.2230249,34.5 23,34.5 C19.7753507,34.5 16.6458394,32.8417862 13.9065678,29.8924882 C13.6243253,29.5754892 13.2209977,29.3929017 12.8,29.39 L9.80113347,29.3899987 C5.2171734,29.4003903 1.50518515,33.1165967 1.5,37.7 L1.5,43 C1.5,43.8284271 2.17157288,44.5 3,44.5 L35.07,44.5 Z" id="Shape"></path>
                <path d="M38.26,44.5 C38.5361424,44.5 38.76,44.7238576 38.76,45 C38.76,45.2761424 38.5361424,45.5 38.26,45.5 L36.44,45.5 C36.1638576,45.5 35.94,45.2761424 35.94,45 C35.94,44.7238576 36.1638576,44.5 36.44,44.5 L38.26,44.5 Z" id="Shape"></path>
            </g>
        </g>
    </g>
</svg>