<svg xmlns="http://www.w3.org/2000/svg" width="48" height="48" viewBox="0 0 48 48">
    <g fill="none" fill-rule="nonzero">
        <path stroke="#FFFAFA" d="M24 2C11.85 2 2 11.85 2 24s9.85 22 22 22 22-9.85 22-22A22 22 0 0 0 24 2z"/>
        <path fill="#FFFAFA" d="M18.65 33.763a.5.5 0 1 1 .5-.866l2.9 1.68a.5.5 0 0 1 .012.859l-6.08 3.75a.5.5 0 0 1-.762-.44l.2-7.15a.5.5 0 0 1 .067-.236l5.61-9.72a.5.5 0 0 1 .866.5l-5.547 9.61-.17 6.098 4.58-2.825-2.177-1.26zM22.488 19.238a.5.5 0 0 1 .864.504l-.66 1.13a.5.5 0 0 1-.864-.504l.66-1.13z"/>
        <path fill="#FFFAFA" d="M22.243 35.25a.5.5 0 0 1-.866-.5l8.4-14.549a1.5 1.5 0 0 0-.557-2.048l-2.42-1.4a1.5 1.5 0 0 0-2.048.548l-.43.74a.5.5 0 0 1-.864-.502l.43-.74a2.5 2.5 0 0 1 3.412-.912l2.419 1.4a2.5 2.5 0 0 1 .924 3.413l-8.4 14.55zM30.823 9.795a1.5 1.5 0 0 0-2.05.549l-.76 1.316a1.5 1.5 0 0 0 .55 2.05l2.425 1.4a1.5 1.5 0 0 0 2.049-.55l.76-1.316a1.5 1.5 0 0 0-.55-2.05l-2.424-1.4zm.5-.866l2.425 1.4a2.5 2.5 0 0 1 .915 3.415l-.76 1.316a2.5 2.5 0 0 1-3.415.915l-2.425-1.4a2.5 2.5 0 0 1-.915-3.415l.76-1.316a2.5 2.5 0 0 1 3.415-.915z"/>
    </g>
</svg>
